<svg xmlns="http://www.w3.org/2000/svg" xmlns:xlink="http://www.w3.org/1999/xlink" viewBox="0 0 559.72 202.64"><defs><style>.cls-1{fill:url(#Безымянный_градиент_34);}.cls-2{fill:url(#Безымянный_градиент_36);}.cls-3{fill:url(#Безымянный_градиент_34-2);}.cls-4{fill:url(#Безымянный_градиент_46);}</style><linearGradient id="Безымянный_градиент_34" x1="559.72" y1="112.47" x2="269.05" y2="112.47" gradientUnits="userSpaceOnUse"><stop offset="0.33" stop-color="#2e3192"/><stop offset="0.38" stop-color="#2a2d8e"/><stop offset="1" stop-color="#00005c"/></linearGradient><linearGradient id="Безымянный_градиент_36" x1="157.47" y1="198.89" x2="193.25" y2="156.25" gradientUnits="userSpaceOnUse"><stop offset="0.2" stop-color="#2e3192"/><stop offset="0.26" stop-color="#2a2d8e"/><stop offset="0.97" stop-color="#00005c"/></linearGradient><linearGradient id="Безымянный_градиент_34-2" x1="100.4" y1="227.73" x2="86.72" y2="142.66" xlink:href="#Безымянный_градиент_34"/><linearGradient id="Безымянный_градиент_46" x1="-10.64" y1="142.31" x2="299.56" y2="87.61" gradientUnits="userSpaceOnUse"><stop offset="0" stop-color="#009cce"/><stop offset="1" stop-color="#00ccea"/></linearGradient></defs><title>rndphp-синий</title><g id="Слой_2" data-name="Слой 2"><g id="Слой_1-2" data-name="Слой 1"><path class="cls-1" d="M356.48,77q-11.34-10.14-32.93-10.15a97.85,97.85,0,0,0-29.27,4.76L283,123.24h2.17V131H281.3l-12,55a10.65,10.65,0,0,0,10.41,12.92h0a14,14,0,0,0,13.69-11l7.29-33.42a51.52,51.52,0,0,0,17.38,2.92q21.4,0,35.58-14.72t14.17-38.14Q367.82,87.14,356.48,77Zm-20.76,51.41a24.66,24.66,0,0,1-19.67,8.87,27.59,27.59,0,0,1-11-2.19l10.24-47.2A31.56,31.56,0,0,1,323,87q9,0,14.64,4.94t5.67,15Q343.31,119.52,335.72,128.39Zm34.82,27.17L398.89,26h24.7l-9.88,43.54a91.32,91.32,0,0,1-4.57,16.09h.36q12.81-18.84,31.1-18.84,10.25,0,16,5.58T462.37,89q0,5.11-2.56,17.74L449,155.56h-24.7l10.61-47.39q1.83-8.78,1.83-11.7,0-8.23-7.5-8.24-9.51,0-17.93,12.08-5.85,8.77-9.15,23.41l-7.13,31.84Zm87.83,43.35L486.18,71.59a97.8,97.8,0,0,1,29.27-4.76Q537,66.83,548.38,77t11.34,27.54q0,23.42-14.18,38.14T510,157.38a51.52,51.52,0,0,1-17.38-2.92l-9.69,44.45ZM497,135.07a27.67,27.67,0,0,0,11,2.19,24.68,24.68,0,0,0,19.67-8.87q7.59-8.86,7.59-21.5,0-10-5.67-15T514.9,87a31.56,31.56,0,0,0-7.68.92Z"/><path class="cls-2" d="M162.78,150.08c-.25,15.71-10.13,38-16.68,52.56H190c1.82-3.35,9.22-12.95,12.93-21.15C194.69,167.47,183.32,161.92,162.78,150.08Z"/><path class="cls-3" d="M55.71,145.64l-6.89,57H86.14C95.82,182,114,156.89,135,147.9l-.23-2.26Z"/><path class="cls-4" d="M300.69,154.48c-2.91,16.75-9.33,30-16.79,28.59-9.06-1.76-1.56-25.84.32-34.13,1.48-6.54,11-44.77,12.93-58.6.72-5.35,2.19-52.58-29.49-65.25-14.5-5.8-45.86-10.17-47.35-10.22-1.5-.75-22.84-12.1-22.84-12.1C184.72-1.94,174-1.57,169.31,11.19l-8.47,36.54c-2.39,9.45,6.43,20.36,19.29,27.77-13.94-.46-35-8.88-32.45-24.85L155,13.77c.23-.61.49-1.19.76-1.77-5.47-.1-18.14-1.46-37.59,0C93.17,14,70.35,26.2,57.89,36.21,29.28,59.2,16.32,86,9.19,126.64L0,202.64H37.32c14.88-31.64,47-53,84.29-53.57,44.51-.72,75.11,21.93,90,53.57h38.94c-.72-24.59-14.21-46.78-30.75-62.94a55.21,55.21,0,0,1-13.34,1.67q-14,0-22.1-7.73t-8.05-20.36q0-16,10.12-25.84t25.7-9.85a38.19,38.19,0,0,1,12,1.67l6.71-30.41h17.26L231.32,125c29.92,8.34,54,2.8,54,2.8s-7.25,5.14-20.15,7.29c-3.18,13.51-3.05,21.13-4.14,26.22-2.94,13.68,3.62,36.29,17.91,37.57,21.51,1.94,25.45-34.61,26.6-42.95ZM97.75,93.18q-5,0-9.47,5.73T81,117.79l-4.77,22.29H58.84l13.4-61h13.4l-.39,11.73h.26q7-13.27,16.36-13.27a15,15,0,0,1,9.54,3.48l-7.35,14A11.35,11.35,0,0,0,97.75,93.18Zm71.19,12.5-7.6,34.4H144l7.47-33.37a51.21,51.21,0,0,0,1.29-8.25c0-3.86-1.76-5.8-5.29-5.8q-6.43,0-11.85,7.09-4.77,6.31-7.22,17.91l-5,22.42H106.06l13.4-61h13.4l-.38,11.73h.25q9.68-13.27,22.68-13.27,7.22,0,11.28,3.93t4.06,11.66A74.44,74.44,0,0,1,168.94,105.68Zm44.59-13.92a21.14,21.14,0,0,1,7.6,1.42l-7.21,32.73a17.36,17.36,0,0,1-7,1.29,12.56,12.56,0,0,1-9.8-4q-3.6-4-3.6-10.57,0-9.27,5.6-15.07A19.11,19.11,0,0,1,213.53,91.76Z"/></g></g></svg>